<svg width="16" height="16" viewBox="0 0 16 16" fill="none" xmlns="http://www.w3.org/2000/svg">
<rect width="16" height="16" rx="1.5" fill="#366CD9"/>
<path d="M12.5457 3.82977L12.538 3.82169L12.5293 3.81481C12.3634 3.68421 12.0557 3.475 11.723 3.475H11.3365C11.1068 3.475 10.8883 3.54446 10.695 3.68116C10.5053 3.81522 10.3597 3.98415 10.2497 4.21562L10.2494 4.21549L10.2459 4.22423L7.98707 9.86106L5.72801 4.21439L5.72814 4.21434L5.72557 4.20862C5.62672 3.98863 5.48114 3.80639 5.28638 3.67942C5.09362 3.54387 4.87605 3.475 4.6473 3.475H4.26081C3.94307 3.475 3.66631 3.5905 3.43986 3.82797C3.21363 4.05519 3.1 4.34129 3.1 4.65716V11.6044C3.1 11.8514 3.19421 12.0884 3.37178 12.2662C3.7259 12.6208 4.3251 12.6337 4.69228 12.2679C4.8815 12.0893 4.97568 11.8512 4.97568 11.6044V7.09789L6.86674 11.7895L6.86673 11.7895L6.86759 11.7916C6.95824 12.0072 7.1065 12.1899 7.32054 12.3257C7.72752 12.5965 8.25818 12.5962 8.66484 12.3247C8.86856 12.1886 9.01501 12.007 9.11477 11.785L9.11487 11.785L9.11703 11.7797L11.0081 7.09657V11.6044C11.0081 11.8629 11.1036 12.0915 11.2933 12.2696C11.4772 12.4422 11.7014 12.5385 11.9509 12.5385C12.1977 12.5385 12.4344 12.444 12.612 12.2662C12.7889 12.0891 12.8838 11.8623 12.8838 11.6044V4.64724C12.8838 4.50367 12.875 4.37448 12.8335 4.25013C12.7912 4.12313 12.7188 4.01246 12.609 3.89691C12.6089 3.89682 12.6088 3.89673 12.6087 3.89663L12.5457 3.82977Z" fill="white" stroke="white" stroke-width="0.3"/>
</svg>
