<svg width="90" height="40" viewBox="0 0 90 40" fill="none" xmlns="http://www.w3.org/2000/svg">
<path d="M24.6169 11.685C24.1787 11.227 23.6529 11.0089 23.0395 11.0089H22.185C21.7469 11.0089 21.3306 11.1397 20.9582 11.4015C20.5857 11.6632 20.3009 11.9904 20.0818 12.4484L14.7799 25.6011L9.47805 12.4266C9.28087 11.9904 8.99606 11.6414 8.62361 11.4015C8.25117 11.1397 7.8349 11.0089 7.39673 11.0089H6.54229C5.92885 11.0089 5.40305 11.227 4.96488 11.685C4.5267 12.1213 4.30762 12.6666 4.30762 13.2773V28.5458C4.30762 29.0038 4.48289 29.4401 4.81152 29.7672C5.46877 30.4216 6.58611 30.4434 7.26528 29.7672C7.61582 29.4401 7.79109 29.0038 7.79109 28.5458V16.9417L12.611 28.8293C12.7862 29.2437 13.0711 29.5927 13.4873 29.8545C14.276 30.378 15.3057 30.378 16.0944 29.8545C16.4888 29.5927 16.7736 29.2437 16.9708 28.8075L21.7907 16.9417V28.5458C21.7907 29.0256 21.966 29.4401 22.3165 29.7672C22.667 30.0944 23.0833 30.2689 23.5434 30.2689C24.0035 30.2689 24.4416 30.0944 24.7703 29.7672C25.0989 29.4401 25.2742 29.0256 25.2742 28.5458V13.2555C25.2742 12.6448 25.0551 12.1213 24.6169 11.6632V11.685Z" fill="#366CD9"/>
<path d="M46.7245 27.8042L40.1738 12.4048C39.9767 11.9686 39.7138 11.6414 39.3851 11.4015C39.0346 11.1397 38.6183 11.0089 38.1582 11.0089H37.8953C37.4353 11.0089 37.019 11.1397 36.6685 11.4015C36.3398 11.6414 36.0769 11.9904 35.8798 12.4266L29.3291 27.826C29.2195 28.1095 29.1538 28.3495 29.1538 28.524C29.1538 28.982 29.3291 29.3964 29.6358 29.7236C30.2054 30.3125 31.1913 30.378 31.8486 29.9635C32.1334 29.7672 32.3525 29.5055 32.5058 29.1783L34.0394 25.5575H41.9922L43.5259 29.2001C43.6792 29.5273 43.8983 29.8109 44.1831 29.9854C44.4679 30.1599 44.7966 30.2689 45.169 30.2689C45.651 30.2689 46.0892 30.0944 46.4178 29.7672C46.7464 29.4401 46.8998 29.0256 46.8998 28.5676C46.8998 28.3713 46.856 28.1531 46.7245 27.8478V27.8042ZM40.6558 22.2857H35.4197L38.0487 16.0038L40.6777 22.2857H40.6558Z" fill="#0E46B8"/>
<path d="M64.3177 25.8631C63.5728 26.2557 62.8499 26.5393 62.1707 26.7356C61.4915 26.9101 60.7247 27.0192 59.8703 27.0192C58.5558 27.0192 57.3946 26.7574 56.4526 26.2121C55.4886 25.6668 54.7875 24.947 54.3055 23.9436C53.8235 23.0275 53.5825 21.9151 53.5825 20.65C53.5825 19.3849 53.8235 18.2507 54.3274 17.3128C54.8094 16.3749 55.5324 15.6332 56.4526 15.0879C57.3727 14.5426 58.5339 14.2591 59.8922 14.2591C60.7466 14.2591 61.5134 14.3463 62.1926 14.5426C62.8718 14.7171 63.5948 15.0225 64.3177 15.3933C64.8435 15.6987 65.7199 15.5896 66.2019 15.0879C66.4867 14.7826 66.6401 14.4118 66.6401 14.0192C66.6401 13.343 66.3114 12.7977 65.7637 12.5577C64.7778 11.9906 63.7919 11.5762 62.8499 11.3145C61.9078 11.0527 60.8124 10.9 59.6512 10.9C57.8328 10.9 56.1896 11.2926 54.7437 12.0997C53.2977 12.9067 52.1585 14.041 51.3259 15.5024C50.4934 16.9856 50.0771 18.7087 50.0771 20.65C50.0771 22.5913 50.4934 24.2926 51.304 25.7759C52.1366 27.2591 53.2977 28.4151 54.7656 29.2004C56.1896 29.9856 57.8328 30.4 59.6293 30.4C60.8124 30.4 61.8859 30.2692 62.828 29.9856C63.77 29.7239 64.7559 29.2876 65.7418 28.7423C66.3114 28.4369 66.6181 27.9353 66.6181 27.2591C66.6181 26.8447 66.4648 26.4739 66.1581 26.1685C65.6761 25.6886 64.7778 25.6014 64.2958 25.8849L64.3177 25.8631Z" fill="#0E46B8"/>
<path d="M86.6866 11.4017C85.8979 10.6165 84.5833 10.8128 83.9918 11.7289L79.1062 18.8178L74.2206 11.7289C73.87 11.1836 73.3442 10.9 72.7089 10.9C72.2269 10.9 71.8106 11.0745 71.482 11.4235C71.1534 11.7725 71 12.1651 71 12.645C71 12.9285 71.0876 13.2557 71.3067 13.6702L77.3316 22.0678V28.4151C77.3316 28.895 77.5069 29.3094 77.8574 29.6366C78.2079 29.9638 78.6242 30.1383 79.0843 30.1383C79.5444 30.1383 79.9825 29.9638 80.3112 29.6366C80.6398 29.3094 80.8151 28.895 80.8151 28.4151V22.0678L86.9276 13.5829C87.1028 13.2121 87.1905 12.8849 87.1905 12.6014C87.1905 12.1433 87.0152 11.7507 86.6866 11.4017Z" fill="#E07000"/>
</svg>
